HIERARCHY
ROOT reference
{
  OFFSET 0 0 0
  CHANNELS 6 Xposition Yposition Zposition Zrotation Xrotation Yrotation
  JOINT Hips
  {
    OFFSET 346.547 88.4868 223.89
    CHANNELS 3 Zrotation Xrotation Yrotation
    JOINT RightUpLeg
    {
      OFFSET -9.27468 -1.51611 -0.00175448
      CHANNELS 3 Zrotation Xrotation Yrotation
      JOINT RightLeg
      {
        OFFSET -0.00464511 -41.8738 0.0184652
        CHANNELS 3 Zrotation Xrotation Yrotation
        JOINT RightFoot
        {
          OFFSET -0.626239 -42.3044 -0.171503
          CHANNELS 3 Zrotation Xrotation Yrotation
          End Site
          {
            OFFSET 0 -7.69 17.5
          }
        }
      }
    }
    JOINT LeftUpLeg
    {
      OFFSET 9.30083 -1.68454 -0.0454748
      CHANNELS 3 Zrotation Xrotation Yrotation
      JOINT LeftLeg
      {
        OFFSET 0.0692631 -41.8513 -0.097029
        CHANNELS 3 Zrotation Xrotation Yrotation
        JOINT LeftFoot
        {
          OFFSET 0.520945 -41.523 0.446349
          CHANNELS 3 Zrotation Xrotation Yrotation
          End Site
          {
            OFFSET 0 -7.69 17.5
          }
        }
      }
    }
    JOINT Spine
    {
      OFFSET 0.0770133 14.2992 0.0590021
      CHANNELS 3 Zrotation Xrotation Yrotation
      JOINT Spine1
      {
        OFFSET 0.0471461 9.71665 0.020973
        CHANNELS 3 Zrotation Xrotation Yrotation
        JOINT Spine2
        {
          OFFSET 0.051283 10.117 0.000913966
          CHANNELS 3 Zrotation Xrotation Yrotation
          JOINT Spine3
          {
            OFFSET 0.0447963 9.71088 0.00221408
            CHANNELS 3 Zrotation Xrotation Yrotation
            JOINT Neck
            {
              OFFSET 0.115655 10.3749 0.0448519
              CHANNELS 3 Zrotation Xrotation Yrotation
              JOINT Head
              {
                OFFSET 0.0937003 9.47807 0.0215077
                CHANNELS 3 Zrotation Xrotation Yrotation
                End Site
                {
                  OFFSET 0 15.95 0
                }
              }
            }
            JOINT RightShoulder
            {
              OFFSET -3.17023 6.91072 -0.0050072
              CHANNELS 3 Zrotation Xrotation Yrotation
              JOINT RightArm
              {
                OFFSET -12.7573 0.00694711 0.0313031
                CHANNELS 3 Zrotation Xrotation Yrotation
                JOINT RightForeArm
                {
                  OFFSET -26.5152 -0.0619338 -0.0331286
                  CHANNELS 3 Zrotation Xrotation Yrotation
                  JOINT RightHand
                  {
                    OFFSET -25.9971 0.0398378 -0.0269922
                    CHANNELS 3 Zrotation Xrotation Yrotation
                    JOINT RightHandThumb1
                    {
                      OFFSET -2.48905 0.190105 3.12053
                      CHANNELS 3 Zrotation Xrotation Yrotation
                      JOINT RightHandThumb2
                      {
                        OFFSET -3.68274 0 0
                        CHANNELS 3 Zrotation Xrotation Yrotation
                        JOINT RightHandThumb3
                        {
                          OFFSET -2.55832 0 0
                          CHANNELS 3 Zrotation Xrotation Yrotation
                          End Site
                          {
                            OFFSET -2.194 0 0
                          }
                        }
                      }
                    }
                    JOINT RightInHandIndex
                    {
                      OFFSET -3.22368 0.508421 1.97842
                      CHANNELS 3 Zrotation Xrotation Yrotation
                      JOINT RightHandIndex1
                      {
                        OFFSET -5.21684 -0.091368 0.999158
                        CHANNELS 3 Zrotation Xrotation Yrotation
                        JOINT RightHandIndex2
                        {
                          OFFSET -3.61937 0 0
                          CHANNELS 3 Zrotation Xrotation Yrotation
                          JOINT RightHandIndex3
                          {
                            OFFSET -2.0521 0 0
                            CHANNELS 3 Zrotation Xrotation Yrotation
                            End Site
                            {
                              OFFSET -1.805 0 0
                            }
                          }
                        }
                      }
                    }
                    JOINT RightInHandMiddle
                    {
                      OFFSET -3.38211 0.517263 0.756737
                      CHANNELS 3 Zrotation Xrotation Yrotation
                      JOINT RightHandMiddle1
                      {
                        OFFSET -5.17411 -0.084 0.313895
                        CHANNELS 3 Zrotation Xrotation Yrotation
                        JOINT RightHandMiddle2
                        {
                          OFFSET -3.94947 0 0
                          CHANNELS 3 Zrotation Xrotation Yrotation
                          JOINT RightHandMiddle3
                          {
                            OFFSET -2.47579 0 0
                            CHANNELS 3 Zrotation Xrotation Yrotation
                            End Site
                            {
                              OFFSET -1.975 0 0
                            }
                          }
                        }
                      }
                    }
                    JOINT RightInHandRing
                    {
                      OFFSET -3.36516 0.537895 -0.128947
                      CHANNELS 3 Zrotation Xrotation Yrotation
                      JOINT RightHandRing1
                      {
                        OFFSET -4.63474 -0.022105 -0.478947
                        CHANNELS 3 Zrotation Xrotation Yrotation
                        JOINT RightHandRing2
                        {
                          OFFSET -3.44238 0 0
                          CHANNELS 3 Zrotation Xrotation Yrotation
                          JOINT RightHandRing3
                          {
                            OFFSET -2.3881 0 0
                            CHANNELS 3 Zrotation Xrotation Yrotation
                            End Site
                            {
                              OFFSET -1.857 0 0
                            }
                          }
                        }
                      }
                    }
                    JOINT RightInHandPinky
                    {
                      OFFSET -3.16105 0.469368 -1.20179
                      CHANNELS 3 Zrotation Xrotation Yrotation
                      JOINT RightHandPinky1
                      {
                        OFFSET -4.14105 -0.022105 -1.09053
                        CHANNELS 3 Zrotation Xrotation Yrotation
                        JOINT RightHandPinky2
                        {
                          OFFSET -2.75653 0 0
                          CHANNELS 3 Zrotation Xrotation Yrotation
                          JOINT RightHandPinky3
                          {
                            OFFSET -1.74189 0 0
                            CHANNELS 3 Zrotation Xrotation Yrotation
                            End Site
                            {
                              OFFSET -1.645 0 0
                            }
                          }
                        }
                      }
                    }
                  }
                }
              }
            }
            JOINT LeftShoulder
            {
              OFFSET 3.25178 6.92057 -0.0384945
              CHANNELS 3 Zrotation Xrotation Yrotation
              JOINT LeftArm
              {
                OFFSET 12.8462 -0.0383255 -0.0637898
                CHANNELS 3 Zrotation Xrotation Yrotation
                JOINT LeftForeArm
                {
                  OFFSET 26.4888 -0.0608964 -0.0673835
                  CHANNELS 3 Zrotation Xrotation Yrotation
                  JOINT LeftHand
                  {
                    OFFSET 25.9932 -0.0402352 -0.0274148
                    CHANNELS 3 Zrotation Xrotation Yrotation
                    JOINT LeftHandThumb1
                    {
                      OFFSET 2.48905 0.190105 3.12053
                      CHANNELS 3 Zrotation Xrotation Yrotation
                      JOINT LeftHandThumb2
                      {
                        OFFSET 3.68274 0 0
                        CHANNELS 3 Zrotation Xrotation Yrotation
                        JOINT LeftHandThumb3
                        {
                          OFFSET 2.55832 0 0
                          CHANNELS 3 Zrotation Xrotation Yrotation
                          End Site
                          {
                            OFFSET 2.194 0 0
                          }
                        }
                      }
                    }
                    JOINT LeftInHandIndex
                    {
                      OFFSET 3.22368 0.508421 1.97842
                      CHANNELS 3 Zrotation Xrotation Yrotation
                      JOINT LeftHandIndex1
                      {
                        OFFSET 5.21684 -0.091368 0.999158
                        CHANNELS 3 Zrotation Xrotation Yrotation
                        JOINT LeftHandIndex2
                        {
                          OFFSET 3.61937 0 0
                          CHANNELS 3 Zrotation Xrotation Yrotation
                          JOINT LeftHandIndex3
                          {
                            OFFSET 2.0521 0 0
                            CHANNELS 3 Zrotation Xrotation Yrotation
                            End Site
                            {
                              OFFSET 1.805 0 0
                            }
                          }
                        }
                      }
                    }
                    JOINT LeftInHandMiddle
                    {
                      OFFSET 3.38211 0.517263 0.756737
                      CHANNELS 3 Zrotation Xrotation Yrotation
                      JOINT LeftHandMiddle1
                      {
                        OFFSET 5.17411 -0.084 0.313895
                        CHANNELS 3 Zrotation Xrotation Yrotation
                        JOINT LeftHandMiddle2
                        {
                          OFFSET 3.94947 0 0
                          CHANNELS 3 Zrotation Xrotation Yrotation
                          JOINT LeftHandMiddle3
                          {
                            OFFSET 2.47579 0 0
                            CHANNELS 3 Zrotation Xrotation Yrotation
                            End Site
                            {
                              OFFSET 1.975 0 0
                            }
                          }
                        }
                      }
                    }
                    JOINT LeftInHandRing
                    {
                      OFFSET 3.36516 0.537895 -0.128947
                      CHANNELS 3 Zrotation Xrotation Yrotation
                      JOINT LeftHandRing1
                      {
                        OFFSET 4.63474 -0.022105 -0.478947
                        CHANNELS 3 Zrotation Xrotation Yrotation
                        JOINT LeftHandRing2
                        {
                          OFFSET 3.44238 0 0
                          CHANNELS 3 Zrotation Xrotation Yrotation
                          JOINT LeftHandRing3
                          {
                            OFFSET 2.3881 0 0
                            CHANNELS 3 Zrotation Xrotation Yrotation
                            End Site
                            {
                              OFFSET 1.857 0 0
                            }
                          }
                        }
                      }
                    }
                    JOINT LeftInHandPinky
                    {
                      OFFSET 3.16105 0.469368 -1.20179
                      CHANNELS 3 Zrotation Xrotation Yrotation
                      JOINT LeftHandPinky1
                      {
                        OFFSET 4.14105 -0.022105 -1.09053
                        CHANNELS 3 Zrotation Xrotation Yrotation
                        JOINT LeftHandPinky2
                        {
                          OFFSET 2.75653 0 0
                          CHANNELS 3 Zrotation Xrotation Yrotation
                          JOINT LeftHandPinky3
                          {
                            OFFSET 1.74189 0 0
                            CHANNELS 3 Zrotation Xrotation Yrotation
                            End Site
                            {
                              OFFSET 1.645 0 0
                            }
                          }
                        }
                      }
                    }
                  }
                }
              }
            }
          }
        }
      }
    }
  }
}
MOTION
Frames: 2
Frame Time: 0.00833333
1.200000000000000000e+03 0.000000000000000000e+00 0.000000000000000000e+00 0.000000000000000000e+00 0.000000000000000000e+00 0.000000000000000000e+00 1.591237870255239351e+01 7.002719369828431795e+00 -8.195941561805145170e+01 1.081636008440946206e+01 -2.797245235435069333e+01 1.020882761479290046e+01 -4.080118411919095855e+00 1.767626927631254574e+01 -7.171720670343598059e+00 7.134662273678902267e+00 9.292524770876198659e+00 2.960837738319176182e+01 1.448201799453089222e+01 -2.240810868521633026e+01 9.091302382558321682e-01 -5.161679110381975022e+00 3.641052848568626388e+01 7.675605331178285695e+00 -7.243653583392446471e-01 -1.664188180707708753e+01 -6.320722108151304752e+00 -1.338346436294529429e+00 4.058569395619037401e+00 7.242354280275868916e-01 -2.733356102695777556e-01 6.974070055875227769e-01 2.975136616362936692e-01 -4.479993054364845850e-01 8.836060874828985945e-01 2.079702791588138311e-01 -2.400784707424004627e-01 -1.047945307644533863e-01 8.244381257784114680e-01 1.005779287058619076e-01 -2.416133658215242175e+00 9.829958015112513436e+00 -3.452372101991085351e+00 6.378476243390196032e+00 8.420757195771280124e+00 6.942759722242864973e-01 -5.639045169593805973e+00 1.346295603048497824e+01 5.218140061453405565e+01 -3.326778123834444756e+01 2.783860573013384609e+01 2.088087162090628013e+01 -6.320230199058684661e+00 8.841892680398348148e+01 1.486097253370476956e+01 -2.250032609072566459e+01 8.814183507584267829e+00 2.818400000000000105e+01 1.072940000000000005e+01 1.915919999999999845e+01 1.750302306936045273e-14 1.882402972752874724e-15 -1.000000000000000000e+01 1.363477641441849287e-14 6.214623126554486136e-15 -1.000000000000000000e+01 -2.467382913919291857e-15 7.645279870115112438e-15 5.183217253162429914e-16 1.998179999999999978e+01 8.718970000000000331e-01 2.396399999999999864e+00 2.400000000000000000e+01 5.691926044456132570e-15 7.279527182374245607e-15 2.000000000000000000e+01 1.639166025655663886e-14 1.460130173489512776e-14 -2.467382913919291857e-15 7.645279870115112438e-15 5.183217253162429914e-16 2.000000000000000000e+01 2.456291677810671190e-15 7.220690388696185017e-15 2.400000000000000000e+01 8.454849066115466563e-15 4.541887967164442337e-15 2.000000000000000000e+01 -1.231566537885950045e-15 1.351020340038270196e-14 -2.467382913919291857e-15 7.645279870115112438e-15 5.183217253162429914e-16 1.997479999999999833e+01 -1.025649999999999951e+00 -2.819380000000000219e+00 2.400000000000000000e+01 -9.639331454339411153e-15 1.738284394861108884e-14 2.000000000000000000e+01 -4.298081344945887666e-15 -1.384282256746414264e-15 -2.467382913919291857e-15 7.645279870115112438e-15 5.183217253162429914e-16 1.978150000000000119e+01 -3.009479999999999933e+00 -8.305149999999999366e+00 2.400000000000000000e+01 5.203669929518953824e-15 -4.979577881446043508e-15 2.000000000000000000e+01 3.836332920808908550e-16 1.522828122261410083e-14 7.861559841374685220e+00 -1.797695401990801400e+01 -3.982016768894288816e+01 -3.778105188171653595e+01 2.283863931282805737e+01 -9.384854099809710704e+01 1.968507732605374372e+01 -1.852128593375381982e+01 -4.073264954496195145e+01 -3.180547495236938360e+01 -1.297072138874145608e+01 -1.042130651765624094e+01 -2.818400000000000105e+01 1.072940000000000005e+01 -1.915919999999999845e+01 -3.565139334556447481e-15 -6.261549425249938210e-15 1.000000000000000000e+01 7.017476509994365589e-15 8.748855749454998790e-16 1.000000000000000000e+01 -8.742904573525994365e-16 -5.363012103263668993e-15 3.198944307728557739e-15 -1.998179999999999978e+01 8.718970000000000331e-01 -2.396399999999999864e+00 -2.400000000000000000e+01 -2.781563962218873498e-15 -8.994108288655990892e-16 -2.000000000000000000e+01 -2.199012957090361168e-17 -2.287283694472049484e-14 -8.742904573525994365e-16 -5.363012103263668993e-15 3.198944307728557739e-15 -2.000000000000000000e+01 -4.497765274934794906e-15 -7.884403678687484759e-15 -2.400000000000000000e+01 2.631270880238515938e-16 1.123734574543958115e-16 -2.000000000000000000e+01 -1.135383065883821380e-15 -1.028935761620640898e-14 -8.742904573525994365e-16 -5.363012103263668993e-15 3.198944307728557739e-15 -1.997479999999999833e+01 -1.025649999999999951e+00 2.819380000000000219e+00 -2.400000000000000000e+01 9.176985543232777298e-15 -4.842506496272223309e-15 -2.000000000000000000e+01 8.690095220871595863e-16 -1.553177427854793147e-14 -8.742904573525994365e-16 -5.363012103263668993e-15 3.198944307728557739e-15 -1.978150000000000119e+01 -3.009479999999999933e+00 8.305149999999999366e+00 -2.400000000000000000e+01 4.731400292485214256e-15 -7.894356360306096587e-16 -2.000000000000000000e+01 4.065441439824932622e-15 -3.318262334441147563e-14
1.200000000000000000e+03 0.000000000000000000e+00 0.000000000000000000e+00 0.000000000000000000e+00 0.000000000000000000e+00 0.000000000000000000e+00 1.573274379266516476e+01 7.009586703752550996e+00 -8.058008180263911413e+01 1.056442535624928780e+01 -2.741088849668315319e+01 9.954556643792512816e+00 -4.038543739267231203e+00 1.756213046255327725e+01 -7.252318253013896765e+00 6.965958554127668734e+00 9.643802698287064601e+00 2.941424701689989263e+01 1.401992640047146921e+01 -2.235313170109971992e+01 4.902718129838081751e-01 -4.883836084587610316e+00 3.619404243572952140e+01 7.334717559689590161e+00 -8.868041428073282217e-01 -1.646777463657664953e+01 -6.977281646258578718e+00 -1.257064093872988897e+00 4.020861534557430339e+00 1.091069644533281036e+00 -2.538840961434362664e-01 6.831724192962523867e-01 3.922043986682721695e-01 -4.148916021505558716e-01 8.580986450333994986e-01 3.503981609368409522e-01 -2.270403214174602780e-01 -1.029076658990204646e-01 7.804830953797936566e-01 1.297450099173920179e-01 -2.428422149025057486e+00 9.216754713514774267e+00 -3.230674977080378873e+00 6.455506303576327376e+00 7.945454302472185759e+00 6.346474830224876351e-01 -5.828564000306784010e+00 1.368629602534531386e+01 5.191339314549274775e+01 -3.260337761291636838e+01 2.847260668179895049e+01 2.020154147238352493e+01 -6.291231231562971260e+00 8.811242156552818017e+01 1.493037733149384394e+01 -2.235215592487108083e+01 8.990138248589168768e+00 2.818400000000000105e+01 1.072940000000000005e+01 1.915919999999999845e+01 1.753656019968004540e-14 1.876163714134484911e-15 -1.000000000000000000e+01 1.362890619971870237e-14 6.192976603203018763e-15 -1.000000000000000000e+01 -2.443464495657405961e-15 7.623682557961906453e-15 5.089015159770312195e-16 1.998179999999999978e+01 8.718970000000000331e-01 2.396399999999999864e+00 2.400000000000000000e+01 5.669357763941507124e-15 7.333962984936836710e-15 2.000000000000000000e+01 1.638662481802747100e-14 1.464676662858777744e-14 -2.443464495657405961e-15 7.623682557961906453e-15 5.089015159770312195e-16 2.000000000000000000e+01 2.423751193208690720e-15 7.180369151622420757e-15 2.400000000000000000e+01 8.483921141032303188e-15 4.586889710042906071e-15 2.000000000000000000e+01 -1.185655691128577158e-15 1.354369364888260606e-14 -2.443464495657405961e-15 7.623682557961906453e-15 5.089015159770312195e-16 1.997479999999999833e+01 -1.025649999999999951e+00 -2.819380000000000219e+00 2.400000000000000000e+01 -9.618552169330248883e-15 1.743233105674482347e-14 2.000000000000000000e+01 -4.288903432678892856e-15 -1.343825959638228709e-15 -2.443464495657405961e-15 7.623682557961906453e-15 5.089015159770312195e-16 1.978150000000000119e+01 -3.009479999999999933e+00 -8.305149999999999366e+00 2.400000000000000000e+01 5.226148137138909048e-15 -4.942370091903870697e-15 2.000000000000000000e+01 3.827677495960465826e-16 1.524054794324445148e-14 7.754857195208083809e+00 -1.788481246702599492e+01 -3.955592491025406332e+01 -3.817882730046908790e+01 2.230611722797963736e+01 -9.318384071191562157e+01 1.947954148864658919e+01 -1.884033112667760079e+01 -4.184820004201508681e+01 -3.172010647126455751e+01 -1.285902553786819524e+01 -1.060008567226138254e+01 -2.818400000000000105e+01 1.072940000000000005e+01 -1.915919999999999845e+01 -3.544352556848857672e-15 -6.255596909459560751e-15 1.000000000000000000e+01 7.034825809157139133e-15 8.584777072752118341e-16 1.000000000000000000e+01 -8.795321078407510622e-16 -5.355224644869652793e-15 3.187722647343132223e-15 -1.998179999999999978e+01 8.718970000000000331e-01 -2.396399999999999864e+00 -2.400000000000000000e+01 -2.794708276462267996e-15 -8.800119371031393842e-16 -2.000000000000000000e+01 -2.726913565357402623e-17 -2.287340213295437175e-14 -8.795321078407510622e-16 -5.355224644869652793e-15 3.187722647343132223e-15 -2.000000000000000000e+01 -4.496429713904350724e-15 -7.908403280660713490e-15 -2.400000000000000000e+01 2.664981278784310060e-16 9.966397772884815422e-17 -2.000000000000000000e+01 -1.116936819068851999e-15 -1.028972357022366774e-14 -8.795321078407510622e-16 -5.355224644869652793e-15 3.187722647343132223e-15 -1.997479999999999833e+01 -1.025649999999999951e+00 2.819380000000000219e+00 -2.400000000000000000e+01 9.201298600637842263e-15 -4.830749191902820070e-15 -2.000000000000000000e+01 8.647655019528127167e-16 -1.553834158078547322e-14 -8.795321078407510622e-16 -5.355224644869652793e-15 3.187722647343132223e-15 -1.978150000000000119e+01 -3.009479999999999933e+00 8.305149999999999366e+00 -2.400000000000000000e+01 4.719181428469601992e-15 -8.050998730790700827e-16 -2.000000000000000000e+01 4.056840083016469851e-15 -3.317639359890919118e-14
